<svg xmlns="http://www.w3.org/2000/svg" viewBox="0 0 245.68 66.32"><defs><style>.cls-1,.cls-2{fill:#fff;stroke:#fff;stroke-miterlimit:10;}.cls-1{stroke-width:2px;}.cls-2{font-size:51.06px;font-family:Arial-BoldMT, Arial;font-weight:700;letter-spacing:-0.04em;}</style></defs><title>logo</title><g id="playthis"><path class="cls-1" d="M51.77,67.37A10.77,10.77,0,0,0,41,56.77a17.66,17.66,0,0,0,6.67-6.67,1.16,1.16,0,0,0,.67.18h4.56a4.12,4.12,0,0,0,4.12-4V38a4,4,0,0,0-3.94-4.12H49.8V33a17.18,17.18,0,1,0-34.36,0V34H12.17a4.12,4.12,0,0,0-4.12,4v8.23a4.12,4.12,0,0,0,4,4.12h4.65a1.16,1.16,0,0,0,.67-.18,17.05,17.05,0,0,0,6.67,6.67,10.71,10.71,0,0,0-10.74,10.6l2.68,0a8,8,0,0,1,8.1-7.92H40.85A8.07,8.07,0,0,1,49,67.37Zm-2-30.73H53A1.42,1.42,0,0,1,54.4,38v8.19a1.42,1.42,0,0,1-1.34,1.43H49.75Zm-34.36,11H12.17a1.42,1.42,0,0,1-1.43-1.34V38a1.42,1.42,0,0,1,1.34-1.43h3.31Zm17.13-29a14.28,14.28,0,0,1,10.2,4.25,17.25,17.25,0,0,0-20.44,0A14.17,14.17,0,0,1,32.53,18.56ZM22.24,26.35a14.47,14.47,0,0,1,20.49,0,13.77,13.77,0,0,1,3.49,5.73,17.22,17.22,0,0,0-27.47,0A14.94,14.94,0,0,1,22.24,26.35ZM32.66,56.28h-.13a14.38,14.38,0,1,1,.13,0Z" transform="translate(-7.06 -14.79)"/><text class="cls-2" transform="translate(49.99 46.6)">playthis</text></g></svg>